<svg xml:space="preserve" style="enable-background:new 0 0 977.9 135.4;" viewBox="0 0 977.9 135.4" y="0px" x="0px" xmlns:xlink="http://www.w3.org/1999/xlink" xmlns="http://www.w3.org/2000/svg" id="Layer_1" version="1.1">
<path d="M718.8,67.7c0-8.2,1.6-14.7,4.9-19.4h0l30.2-46.9c-3-0.2-6.1-0.3-9.3-0.3c-37.5,0-59.2,13.8-66.4,42.6V5.9h-41.5v43.8h-42.9
	V5.9h-41.6v36c-5.7-21-19.5-33.6-41.8-38.5c-10.7-2.5-21-2.3-24.2-2.3c-36.3,0-57.8,12.8-65.6,39.7c-1-10.5-3.8-18.5-8.6-24.2
	c-6-7.1-16-10.6-30.1-10.6h-86.2v115.8L251.8,5.8h-58.1L150.1,123V5.8H97.8L75,66.5L52.6,5.8H0v123.7h41.8l-0.1-51.2l18.7,51.2h29.1
	l19-51.2l-0.1,51.2h83.4l5.9-15.5h50.9l5.9,15.5h83.2V94.4h27.5l14.8,35.1h43.4l-22.2-43.9l0.9-0.4c6.2-2.1,10.5-6.4,13.9-11.9
	c0.5-0.8,1-1.7,1.4-2.6c0.8,34.8,15.4,54.8,44.8,61.3l3.9,0.7c5,0.8,8,1.1,11,1.3c3,0.2,6.1,0.3,9.3,0.3c36.8,0,58.4-13.2,66-40.9
	v36h41.6V85.7h42.9v43.8h41.5V91.9c5.4,21.9,19.3,35.1,42.2,40.2l23.1-35.9C726.3,95.7,718.7,85.5,718.8,67.7L718.8,67.7z M209,81.7
	l13.7-36.6l14.2,36.6H209L209,81.7z M370.1,60.2h-32.7V39.8h32.7c6,0,8.9,3.4,8.9,10.2S376.1,60.2,370.1,60.2L370.1,60.2z
	 M552.1,76.7h-41c-2.3,12.2-9.9,19-23.9,19.3H485c-15.3-0.4-22.9-8.5-24.4-22.9c0-0.1,0-0.1,0-0.2c-0.1-0.8-0.1-1.6-0.2-2.3
	c0-0.1,0-0.2,0-0.4c0-0.8-0.1-1.6-0.1-2.5c0-0.9,0-1.9,0.1-2.8c0-0.1,0-0.2,0-0.3c0-0.9,0.1-1.7,0.2-2.5c0-0.1,0-0.2,0-0.3
	c0.1-0.8,0.2-1.6,0.3-2.4c0-0.1,0-0.2,0-0.2c0.1-0.8,0.3-1.6,0.5-2.3c0,0,0,0,0-0.1c0.8-3.2,2-6,3.7-8.4h0h0c4-5.7,10.5-8.8,19.8-9
	h2.2c9.3,0.2,15.8,3.3,19.8,9h0l0,0c1.7,2.4,2.9,5.2,3.7,8.4c0,0,0,0,0,0.1c0.2,0.6,0.3,1.2,0.4,1.9h41L552.1,76.7L552.1,76.7z"></path>
<path d="M891.4,58.6v1L852.6,5.9h-42v36.4c-5.7-21.2-19.5-34-41.9-38.9l-23.1,35.9c17.2,0.4,24.8,10.6,24.8,28.5
	c0,7.4-1.3,13.5-4.1,18.1l-0.1,0.2c-0.2,0.4-0.5,0.8-0.8,1.2L735.3,134c3,0.2,6.1,0.3,9.3,0.3c37,0,58.6-13.3,66.1-41.3v36.4h42
	V76.3l38.8,53.2h41.8V5.9h-41.8V58.6z"></path>
<polygon points="943.6,8.6 949.2,8.6 949.2,19.3 952.6,19.3 952.6,8.6 958.2,8.6 958.2,5.9 943.6,5.9"></polygon>
<polygon points="972.3,5.9 968.7,15 968.6,15 965.1,5.9 959.6,5.9 959.6,19.3 962.8,19.3 962.8,8.9 962.9,8.9 967.3,19.3 
	970.1,19.3 974.3,9.1 974.4,9.1 974.4,19.3 977.9,19.3 977.9,5.9"></polygon>
</svg>
