<svg width="17" height="17" viewBox="0 0 17 17" fill="none" xmlns="http://www.w3.org/2000/svg">
<path d="M16.3672 8.23994H10.9772L15.6472 5.54994L14.9472 4.32994L10.2772 7.02994L12.9772 2.35994L11.7572 1.65994L9.06719 6.32994V0.939941H7.66719V6.32994L4.97719 1.65994L3.75719 2.35994L6.45719 7.02994L1.78719 4.32994L1.08719 5.54994L5.75719 8.23994H0.367188V9.63994H5.75719L1.08719 12.3299L1.78719 13.5499L6.45719 10.8499L3.75719 15.5199L4.97719 16.2199L7.66719 11.5499V16.9399H9.06719V11.5499L11.7572 16.2199L12.9772 15.5199L10.2772 10.8499L14.9472 13.5499L15.6472 12.3299L10.9772 9.63994H16.3672V8.23994Z" fill="#222222"/>
</svg>
