<svg width="118" height="42" viewBox="0 0 118 42" fill="none" xmlns="http://www.w3.org/2000/svg">
<path d="M11.5038 0.0057334L11.408 0.217869C10.9514 1.22981 10.3089 2.6775 9.4409 4.63832C8.81527 6.0516 8.3249 7.15241 7.97263 7.93215L4.37945 0.0057334H0V19.3416H4.19627V9.53751L6.541 14.9097H9.2859L9.38172 14.6947C9.65227 14.087 10.1257 13.0062 10.7936 11.484C11.1177 10.7415 11.408 10.0822 11.6616 9.50311V19.3416H15.8579V0.0057334H11.5038Z" fill="white"/>
<path d="M116.213 0.0716675L116.202 0.0974678C116.146 0.223602 116.064 0.404204 115.957 0.650741C115.878 0.825609 115.816 0.966077 115.774 1.06068L115.326 0.0716675H114.779V2.48543H115.303V1.26135L115.596 1.93215H115.94L115.951 1.90635C115.985 1.82895 116.044 1.69422 116.129 1.50502C116.168 1.41328 116.205 1.33015 116.236 1.25848V2.48543H116.76V0.0716675H116.213Z" fill="white"/>
<path d="M16.9429 19.3473L23.2021 0H27.9761L34.2803 19.3473H30.1179L28.8412 15.4056H22.4891L21.2265 19.3473H16.9429ZM27.6407 11.7076L25.6454 5.5442L23.6727 11.7076H27.6435H27.6407Z" fill="white"/>
<path d="M35.9092 0H46.7423L49.5182 2.80936V9.89011L46.9537 12.4988L50.3637 19.3502H45.7701L42.6193 12.6995H40.1083V19.3502H35.9092V0ZM40.1083 8.87243H45.322V4.14238H40.1083V8.87243Z" fill="white"/>
<path d="M51.4515 16.538V2.80936L54.2133 0H62.217L64.9788 2.80936V6.83708H60.7797V4.14238H55.6506V15.205H60.7797V12.5103H64.9788V16.538L62.217 19.3473H54.2133L51.4515 16.538Z" fill="white"/>
<path d="M66.6105 19.3473V0H70.8096V7.62542H77.0941V0H81.2932V19.3473H77.0941V11.6359H70.8096V19.3473H66.6105Z" fill="white"/>
<path d="M82.3726 16.538V2.80936L85.1344 0H93.1803L95.9421 2.80936V16.538L93.1803 19.3473H85.1344L82.3726 16.538ZM86.5688 15.205H91.7402V4.14238H86.5688V15.205Z" fill="white"/>
<path d="M97.0158 19.3473V0H101.356L107.175 11.9771V0H111.374V19.3473H107.034L101.215 7.37028V19.3473H97.0158Z" fill="white"/>
<path d="M113.28 0.587673H112.645V0.0716675H114.438V0.587673H113.804V2.48543H113.28V0.587673Z" fill="white"/>
<path d="M5.15163 26.7893H0.0648181V22.6469H14.4347V26.7893H9.3479V41.9943H5.14881V26.7893H5.15163Z" fill="white"/>
<path d="M15.5254 22.6498H26.3584L29.1343 25.4591V32.5399L26.5698 35.1486L29.9798 42H25.3862L22.2354 35.3493H19.7244V42H15.5254V22.6498ZM19.7244 31.5194H24.9381V26.7893H19.7244V31.5194Z" fill="white"/>
<path d="M31.0676 41.9971L37.3268 22.6498H42.1008L48.4051 41.9971H44.2426L42.966 38.0554H36.6138L35.3512 41.9971H31.0676ZM41.7654 34.3574L39.7701 28.194L37.7974 34.3574H41.7682H41.7654Z" fill="white"/>
<path d="M54.3345 22.6498H50.1354V41.9971H54.3345V22.6498Z" fill="white"/>
<path d="M56.7243 41.9971V22.6498H61.0643L66.8839 34.6269V22.6498H71.0829V41.9971H66.743L60.9234 30.0201V41.9971H56.7243Z" fill="white"/>
<path d="M77.9875 22.6498H73.7884V41.9971H77.9875V22.6498Z" fill="white"/>
<path d="M80.7493 41.9971V22.6498H85.0893L90.9088 34.6269V22.6498H95.1079V41.9971H90.7679L84.9484 30.0201V41.9971H80.7493Z" fill="white"/>
<path d="M97.5767 39.1878V25.4591L100.338 22.6498H108.525L111.287 25.4591V29.1572H107.088V26.7922H101.776V37.8548H107.144V34.8017H104.312V30.86H111.287V39.1878L108.525 41.9971H100.338L97.5767 39.1878Z" fill="white"/>
</svg>
